;TYPE=PLATED
;Layer: PTH_Through
;EasyEDA Pro v2.2.45.4, 2026-01-24 23:10:09
;Gerber Generator version 0.3
M48
METRIC,LZ,0000.00000
;Hole size 1 = 0.30500 METRIC
T01C0.30500
;Hole size 2 = 1.20000 METRIC
T02C1.20000
%
G05
G90
T01
X87.63Y27.178
X82.45297Y31.6169
X79.65897Y33.9029
X83.22996Y37.11423
X81.83296Y38.13023
X54.35498Y35.49993
X53.13782Y37.9871
X103.91297Y29.57919
X53.77713Y37.04303
X60.94908Y31.92793
X67.29908Y31.92793
X84.11489Y36.26193
X57.69889Y36.26193
X56.17489Y38.03993
X101.01605Y29.66098
X102.54005Y28.13698
X76.18108Y27.94
X80.9879Y32.45498
X60.21616Y29.91498
X57.8518Y29.91498
X104.07359Y34.56614
X103.24277Y30.06191
X77.79207Y32.31998
X66.87007Y32.57398
X103.65897Y28.3211
X102.489Y29.083
X80.94374Y36.84593
X76.67839Y37.135
X101.92466Y35.9043
X103.32166Y35.9043
X102.235Y37.93388
X105.37088Y28.49677
X99.74847Y29.07698
X102.02184Y31.29404
X101.0539Y33.33102
X75.311Y30.861
X77.47Y28.62682
X80.391Y27.64688
X61.78702Y31.242
X60.071Y32.09188
X58.66308Y27.71203
X61.78699Y36.84593
X82.931Y37.93388
X105.41Y36.64102
X105.34802Y38.989
T02
X85.979Y30.988
X85.979Y28.448
M30