G04 Layer: TopSilkscreenLayer*
G04 EasyEDA Pro v2.2.45.4, 2026-01-24 23:10:09*
G04 Gerber Generator version 0.3*
G04 Scale: 100 percent, Rotated: No, Reflected: No*
G04 Dimensions in millimeters*
G04 Leading zeros omitted, absolute positions, 4 integers and 5 decimals*
G04 Generated by one-click*
%FSLAX45Y45*%
%MOMM*%
%ADD10C,0.254*%
%ADD11C,0.2032*%
%ADD12C,0.203*%
%ADD13C,0.1524*%
%ADD14C,0.15199*%
%ADD15C,0.1016*%
%ADD16C,0.1*%
%ADD17C,0.24*%
%ADD18C,0.1529*%
%ADD19C,0.15001*%
%ADD20C,0.4*%
G75*


G04 PolygonModel Start*
G54D10*
G01X9593743Y3533219D02*
G01X9593743Y3613216D01*
G01X9593697Y3477174D02*
G01X9593697Y3397176D01*
G01X9735711Y3533219D02*
G01X9735711Y3613216D01*
G01X9735663Y3477174D02*
G01X9735663Y3397176D01*
G01X9624725Y3644191D02*
G01X9704730Y3644191D01*
G01X9704677Y3366199D02*
G01X9624675Y3366199D01*
G01X9735663Y3397181D02*
G02X9704677Y3366199I-30983J0D01*
G01X9624680Y3366199D02*
G02X9593697Y3397181I0J30983D01*
G01X9593743Y3613211D02*
G02X9624725Y3644191I30983J-3D01*
G01X9704723Y3644191D02*
G02X9735711Y3613211I5J-30983D01*
G01X10436781Y3827943D02*
G01X10356784Y3827943D01*
G01X10492826Y3827897D02*
G01X10572824Y3827897D01*
G01X10436781Y3969911D02*
G01X10356784Y3969911D01*
G01X10492826Y3969863D02*
G01X10572824Y3969863D01*
G01X10325809Y3858925D02*
G01X10325809Y3938930D01*
G01X10603802Y3938877D02*
G01X10603802Y3858875D01*
G01X10572819Y3969863D02*
G02X10603802Y3938877I0J-30983D01*
G01X10603802Y3858880D02*
G02X10572819Y3827897I-30983J0D01*
G01X10356789Y3827943D02*
G02X10325809Y3858925I3J30983D01*
G01X10325809Y3938923D02*
G02X10356789Y3969911I30983J5D01*
G01X10611957Y3566081D02*
G01X10611957Y3486084D01*
G01X10612003Y3622126D02*
G01X10612003Y3702124D01*
G01X10469989Y3566081D02*
G01X10469989Y3486084D01*
G01X10470037Y3622126D02*
G01X10470037Y3702124D01*
G01X10580975Y3455109D02*
G01X10500970Y3455109D01*
G01X10501023Y3733102D02*
G01X10581025Y3733102D01*
G01X10470037Y3702119D02*
G02X10501023Y3733102I30983J0D01*
G01X10581020Y3733102D02*
G02X10612003Y3702119I0J-30983D01*
G01X10611957Y3486089D02*
G02X10580975Y3455109I-30983J3D01*
G01X10500977Y3455109D02*
G02X10469989Y3486089I-5J30983D01*
G01X9972119Y3601557D02*
G01X10052116Y3601557D01*
G01X9916074Y3601603D02*
G01X9836076Y3601603D01*
G01X9972119Y3459589D02*
G01X10052116Y3459589D01*
G01X9916074Y3459637D02*
G01X9836076Y3459637D01*
G01X10083091Y3570575D02*
G01X10083091Y3490570D01*
G01X9805099Y3490623D02*
G01X9805099Y3570625D01*
G01X9836081Y3459637D02*
G02X9805099Y3490623I0J30983D01*
G01X9805099Y3570620D02*
G02X9836081Y3601603I30983J0D01*
G01X10052111Y3601557D02*
G02X10083091Y3570575I-3J-30983D01*
G01X10083091Y3490577D02*
G02X10052111Y3459589I-30983J-5D01*
G01X6249660Y3166184D02*
G01X6249660Y3086186D01*
G01X6249706Y3222229D02*
G01X6249706Y3302226D01*
G01X6107692Y3166184D02*
G01X6107692Y3086186D01*
G01X6107740Y3222229D02*
G01X6107740Y3302226D01*
G01X6218677Y3055211D02*
G01X6138672Y3055211D01*
G01X6138725Y3333204D02*
G01X6218728Y3333204D01*
G01X6107740Y3302221D02*
G02X6138725Y3333204I30983J0D01*
G01X6218723Y3333204D02*
G02X6249706Y3302221I0J-30983D01*
G01X6249660Y3086191D02*
G02X6218677Y3055211I-30983J3D01*
G01X6138680Y3055211D02*
G02X6107692Y3086191I-5J30983D01*
G01X6249660Y3496079D02*
G01X6249660Y3416082D01*
G01X6249706Y3552124D02*
G01X6249706Y3632121D01*
G01X6107692Y3496079D02*
G01X6107692Y3416082D01*
G01X6107740Y3552124D02*
G01X6107740Y3632121D01*
G01X6218677Y3385106D02*
G01X6138672Y3385106D01*
G01X6138725Y3663099D02*
G01X6218728Y3663099D01*
G01X6107740Y3632116D02*
G02X6138725Y3663099I30983J0D01*
G01X6218723Y3663099D02*
G02X6249706Y3632116I0J-30983D01*
G01X6249660Y3416087D02*
G02X6218677Y3385106I-30983J3D01*
G01X6138680Y3385106D02*
G02X6107692Y3416087I-5J30983D01*
G54D11*
G01X8724900Y2717800D02*
G01X8470900Y2717800D01*
G01X8470900Y2717800D02*
G01X8470900Y3225800D01*
G01X8470900Y3225800D02*
G01X8724900Y3225800D01*
G01X8724900Y3225800D02*
G01X8724900Y3035300D01*
G54D12*
G01X8724900Y2717800D02*
G01X8724900Y3035300D01*
G54D13*
G01X6235700Y3849736D02*
G01X6251110Y3834501D01*
G01X6251110Y3834501D02*
G01X6251110Y3732858D01*
G01X6251110Y3732858D02*
G01X6235700Y3719601D01*
G01X5981700Y3719601D02*
G01X5966285Y3734702D01*
G01X5966285Y3734702D02*
G01X5966285Y3836345D01*
G01X5966285Y3836345D02*
G01X5981700Y3849601D01*
G54D14*
G01X6235901Y3719601D02*
G01X6159701Y3719601D01*
G01X5981494Y3849601D02*
G01X6057694Y3849601D01*
G01X6235901Y3849601D02*
G01X6159701Y3849601D01*
G01X5981494Y3719601D02*
G01X6057694Y3719601D01*
G54D15*
G01X9901230Y3041942D02*
G01X10471231Y3041942D01*
G01X10471231Y3041942D02*
G01X10471231Y3381921D01*
G01X10471231Y3381921D02*
G01X9901230Y3381921D01*
G01X9901230Y3381921D02*
G01X9901230Y3041942D01*
G01X9983739Y3141942D02*
G01X9983739Y3281921D01*
G01X9983739Y3281921D02*
G01X10243734Y3281921D01*
G01X10243734Y3281921D02*
G01X10243734Y3141942D01*
G01X10243734Y3141942D02*
G01X9983739Y3141942D01*
G01X10303731Y3141942D02*
G01X10303731Y3281921D01*
G01X10303731Y3281921D02*
G01X10393746Y3281921D01*
G01X10393746Y3281921D02*
G01X10393746Y3141942D01*
G01X10393746Y3141942D02*
G01X10303731Y3141942D01*
G54D13*
G01X10191245Y2699492D02*
G01X10116675Y2699492D01*
G01X10116675Y2699492D02*
G01X10116675Y2724061D01*
G01X10191245Y2964729D02*
G01X10116675Y2964729D01*
G01X10116675Y2964729D02*
G01X10116675Y2940159D01*
G01X10357350Y2699492D02*
G01X10431920Y2699492D01*
G01X10431920Y2699492D02*
G01X10431920Y2724061D01*
G01X10357350Y2964729D02*
G01X10431920Y2964729D01*
G01X10431920Y2964729D02*
G01X10431920Y2940159D01*
G54D10*
G01X8378000Y3489028D02*
G01X8378000Y3140685D01*
G01X7876540Y3383280D02*
G01X7876540Y3489028D01*
G01X7876540Y3154680D02*
G01X7876540Y3246120D01*
G01X7876540Y3140685D02*
G01X8378000Y3140685D01*
G01X7876540Y3489028D02*
G01X8378000Y3489028D01*
G01X7876540Y3383280D02*
G02X7876540Y3246120I0J-68580D01*
G54D16*
G01X9854103Y3975811D02*
G01X9854103Y3990406D01*
G01X9854103Y3880813D02*
G01X9854103Y3884981D01*
G01X9854103Y3785819D02*
G01X9854103Y3789985D01*
G01X9854103Y3680404D02*
G01X9854103Y3694989D01*
G01X10034105Y3975811D02*
G01X10034105Y3990406D01*
G01X10034105Y3785819D02*
G01X10034105Y3884983D01*
G01X10034105Y3680404D02*
G01X10034105Y3694991D01*
G01X10034105Y3680404D02*
G01X9854103Y3680404D01*
G01X10034105Y3990406D02*
G01X9854103Y3990406D01*
G36*
G01X9923699Y3937000D02*
G02X9888299Y3937000I-17700J-212D01*
G02X9923699Y3937000I17700J212D01*
G37*
G01X4743300Y2726197D02*
G01X4743300Y3776193D01*
G01X4376311Y3776210D02*
G01X4376311Y2726215D01*
G01X4376311Y2726215D02*
G01X5926313Y2726215D01*
G01X5926313Y2726215D02*
G01X5926313Y3776210D01*
G01X5926313Y3776210D02*
G01X4376311Y3776210D01*
G54D13*
G01X10586842Y2963827D02*
G01X10586842Y2913827D01*
G01X10502364Y2979069D02*
G01X10571604Y2979069D01*
G01X10487124Y2913827D02*
G01X10487124Y2963827D01*
G01X10487337Y2819550D02*
G01X10487337Y2869550D01*
G01X10587050Y2869550D02*
G01X10587050Y2819550D01*
G01X10571815Y2804307D02*
G01X10502572Y2804307D01*
G01X10587053Y2819550D02*
G02X10571813Y2804310I-15240J0D01*
G01X10502572Y2804310D02*
G02X10487332Y2819550I0J15240D01*
G01X10487124Y2963827D02*
G02X10502364Y2979067I15240J0D01*
G01X10571604Y2979067D02*
G02X10586844Y2963827I0J-15240D01*
G01X9970546Y2810761D02*
G01X9970546Y2860761D01*
G01X10055024Y2795519D02*
G01X9985784Y2795519D01*
G01X10070264Y2860761D02*
G01X10070264Y2810761D01*
G01X10070051Y2955039D02*
G01X10070051Y2905039D01*
G01X9970338Y2905039D02*
G01X9970338Y2955039D01*
G01X9985573Y2970281D02*
G01X10054816Y2970281D01*
G01X9970336Y2955039D02*
G02X9985576Y2970279I15240J0D01*
G01X10054816Y2970279D02*
G02X10070056Y2955039I0J-15240D01*
G01X10070264Y2810761D02*
G02X10055024Y2795521I-15240J0D01*
G01X9985784Y2795521D02*
G02X9970544Y2810761I0J15240D01*
G01X9701754Y3920239D02*
G01X9701754Y3870239D01*
G01X9617276Y3935481D02*
G01X9686516Y3935481D01*
G01X9602036Y3870239D02*
G01X9602036Y3920239D01*
G01X9602249Y3775961D02*
G01X9602249Y3825961D01*
G01X9701962Y3825961D02*
G01X9701962Y3775961D01*
G01X9686727Y3760719D02*
G01X9617484Y3760719D01*
G01X9701964Y3775961D02*
G02X9686724Y3760721I-15240J0D01*
G01X9617484Y3760721D02*
G02X9602244Y3775961I0J15240D01*
G01X9602036Y3920239D02*
G02X9617276Y3935479I15240J0D01*
G01X9686516Y3935479D02*
G02X9701756Y3920239I0J-15240D01*
G01X10273254Y3907539D02*
G01X10273254Y3857539D01*
G01X10188776Y3922781D02*
G01X10258016Y3922781D01*
G01X10173536Y3857539D02*
G01X10173536Y3907539D01*
G01X10173749Y3763261D02*
G01X10173749Y3813261D01*
G01X10273462Y3813261D02*
G01X10273462Y3763261D01*
G01X10258227Y3748019D02*
G01X10188984Y3748019D01*
G01X10273464Y3763261D02*
G02X10258224Y3748021I-15240J0D01*
G01X10188984Y3748021D02*
G02X10173744Y3763261I0J15240D01*
G01X10173536Y3907539D02*
G02X10188776Y3922779I15240J0D01*
G01X10258016Y3922779D02*
G02X10273256Y3907539I0J-15240D01*
G01X10142713Y3476280D02*
G01X10142713Y3526280D01*
G01X10227191Y3461038D02*
G01X10157950Y3461038D01*
G01X10242431Y3526280D02*
G01X10242431Y3476280D01*
G01X10242217Y3620557D02*
G01X10242217Y3570557D01*
G01X10142504Y3570557D02*
G01X10142504Y3620557D01*
G01X10157739Y3635800D02*
G01X10226982Y3635800D01*
G01X10142502Y3620557D02*
G02X10157742Y3635797I15240J0D01*
G01X10226982Y3635797D02*
G02X10242222Y3620557I0J-15240D01*
G01X10242431Y3476280D02*
G02X10227191Y3461040I-15240J0D01*
G01X10157950Y3461040D02*
G02X10142710Y3476280I0J15240D01*
G01X10282413Y3476280D02*
G01X10282413Y3526280D01*
G01X10366891Y3461038D02*
G01X10297650Y3461038D01*
G01X10382131Y3526280D02*
G01X10382131Y3476280D01*
G01X10381917Y3620557D02*
G01X10381917Y3570557D01*
G01X10282204Y3570557D02*
G01X10282204Y3620557D01*
G01X10297439Y3635800D02*
G01X10366682Y3635800D01*
G01X10282202Y3620557D02*
G02X10297442Y3635797I15240J0D01*
G01X10366682Y3635797D02*
G02X10381922Y3620557I0J-15240D01*
G01X10382131Y3476280D02*
G02X10366891Y3461040I-15240J0D01*
G01X10297650Y3461040D02*
G02X10282410Y3476280I0J15240D01*
G01X7624061Y3059654D02*
G01X7674061Y3059654D01*
G01X7608819Y2975176D02*
G01X7608819Y3044416D01*
G01X7674061Y2959936D02*
G01X7624061Y2959936D01*
G01X7768339Y2960149D02*
G01X7718339Y2960149D01*
G01X7718339Y3059862D02*
G01X7768339Y3059862D01*
G01X7783581Y3044627D02*
G01X7783581Y2975384D01*
G01X7768339Y3059864D02*
G02X7783579Y3044624I0J-15240D01*
G01X7783579Y2975384D02*
G02X7768339Y2960144I-15240J0D01*
G01X7624061Y2959936D02*
G02X7608821Y2975176I0J15240D01*
G01X7608821Y3044416D02*
G02X7624061Y3059656I15240J0D01*
G01X7989346Y2734561D02*
G01X7989346Y2784561D01*
G01X8073824Y2719319D02*
G01X8004584Y2719319D01*
G01X8089064Y2784561D02*
G01X8089064Y2734561D01*
G01X8088851Y2878839D02*
G01X8088851Y2828839D01*
G01X7989138Y2828839D02*
G01X7989138Y2878839D01*
G01X8004373Y2894081D02*
G01X8073616Y2894081D01*
G01X7989136Y2878839D02*
G02X8004376Y2894079I15240J0D01*
G01X8073616Y2894079D02*
G02X8088856Y2878839I0J-15240D01*
G01X8089064Y2734561D02*
G02X8073824Y2719321I-15240J0D01*
G01X8004584Y2719321D02*
G02X7989344Y2734561I0J15240D01*
G01X8230646Y3763261D02*
G01X8230646Y3813261D01*
G01X8315124Y3748019D02*
G01X8245884Y3748019D01*
G01X8330364Y3813261D02*
G01X8330364Y3763261D01*
G01X8330151Y3907539D02*
G01X8330151Y3857539D01*
G01X8230438Y3857539D02*
G01X8230438Y3907539D01*
G01X8245673Y3922781D02*
G01X8314916Y3922781D01*
G01X8230436Y3907539D02*
G02X8245676Y3922779I15240J0D01*
G01X8314916Y3922779D02*
G02X8330156Y3907539I0J-15240D01*
G01X8330364Y3763261D02*
G02X8315124Y3748021I-15240J0D01*
G01X8245884Y3748021D02*
G02X8230644Y3763261I0J15240D01*
G01X6080521Y2843860D02*
G01X6152325Y2843860D01*
G01X6152325Y2843860D02*
G01X6152325Y2744140D01*
G01X6152325Y2744140D02*
G01X6080521Y2744140D01*
G01X6035279Y2843860D02*
G01X5963476Y2843860D01*
G01X5963476Y2843860D02*
G01X5963476Y2744140D01*
G01X5963476Y2744140D02*
G01X6035279Y2744140D01*
G01X6080521Y2983560D02*
G01X6152325Y2983560D01*
G01X6152325Y2983560D02*
G01X6152325Y2883840D01*
G01X6152325Y2883840D02*
G01X6080521Y2883840D01*
G01X6035279Y2983560D02*
G01X5963476Y2983560D01*
G01X5963476Y2983560D02*
G01X5963476Y2883840D01*
G01X5963476Y2883840D02*
G01X6035279Y2883840D01*
G01X5483997Y3805758D02*
G01X5412194Y3805758D01*
G01X5412194Y3805758D02*
G01X5412194Y3905479D01*
G01X5412194Y3905479D02*
G01X5483997Y3905479D01*
G01X5529240Y3805758D02*
G01X5601043Y3805758D01*
G01X5601043Y3805758D02*
G01X5601043Y3905479D01*
G01X5601043Y3905479D02*
G01X5529240Y3905479D01*
G01X5293121Y3910660D02*
G01X5364925Y3910660D01*
G01X5364925Y3910660D02*
G01X5364925Y3810940D01*
G01X5364925Y3810940D02*
G01X5293121Y3810940D01*
G01X5247879Y3910660D02*
G01X5176076Y3910660D01*
G01X5176076Y3910660D02*
G01X5176076Y3810940D01*
G01X5176076Y3810940D02*
G01X5247879Y3810940D01*
G01X8228660Y2796779D02*
G01X8228660Y2724976D01*
G01X8228660Y2724976D02*
G01X8128940Y2724976D01*
G01X8128940Y2724976D02*
G01X8128940Y2796779D01*
G01X8228660Y2842021D02*
G01X8228660Y2913825D01*
G01X8228660Y2913825D02*
G01X8128940Y2913825D01*
G01X8128940Y2913825D02*
G01X8128940Y2842021D01*
G01X7697140Y2842021D02*
G01X7697140Y2913825D01*
G01X7697140Y2913825D02*
G01X7796860Y2913825D01*
G01X7796860Y2913825D02*
G01X7796860Y2842021D01*
G01X7697140Y2796779D02*
G01X7697140Y2724976D01*
G01X7697140Y2724976D02*
G01X7796860Y2724976D01*
G01X7796860Y2724976D02*
G01X7796860Y2796779D01*
G01X7949260Y2784079D02*
G01X7949260Y2712276D01*
G01X7949260Y2712276D02*
G01X7849540Y2712276D01*
G01X7849540Y2712276D02*
G01X7849540Y2784079D01*
G01X7949260Y2829321D02*
G01X7949260Y2901125D01*
G01X7949260Y2901125D02*
G01X7849540Y2901125D01*
G01X7849540Y2901125D02*
G01X7849540Y2829321D01*
G01X8381060Y2784079D02*
G01X8381060Y2712276D01*
G01X8381060Y2712276D02*
G01X8281340Y2712276D01*
G01X8281340Y2712276D02*
G01X8281340Y2784079D01*
G01X8381060Y2829321D02*
G01X8381060Y2901125D01*
G01X8381060Y2901125D02*
G01X8281340Y2901125D01*
G01X8281340Y2901125D02*
G01X8281340Y2829321D01*
G01X7837068Y3818571D02*
G01X7837068Y3746768D01*
G01X7837068Y3746768D02*
G01X7737348Y3746768D01*
G01X7737348Y3746768D02*
G01X7737348Y3818571D01*
G01X7837068Y3863814D02*
G01X7837068Y3935617D01*
G01X7837068Y3935617D02*
G01X7737348Y3935617D01*
G01X7737348Y3935617D02*
G01X7737348Y3863814D01*
G01X7733360Y3177779D02*
G01X7733360Y3105976D01*
G01X7733360Y3105976D02*
G01X7633640Y3105976D01*
G01X7633640Y3105976D02*
G01X7633640Y3177779D01*
G01X7733360Y3223021D02*
G01X7733360Y3294825D01*
G01X7733360Y3294825D02*
G01X7633640Y3294825D01*
G01X7633640Y3294825D02*
G01X7633640Y3223021D01*
G01X7733360Y3419079D02*
G01X7733360Y3347276D01*
G01X7733360Y3347276D02*
G01X7633640Y3347276D01*
G01X7633640Y3347276D02*
G01X7633640Y3419079D01*
G01X7733360Y3464321D02*
G01X7733360Y3536125D01*
G01X7733360Y3536125D02*
G01X7633640Y3536125D01*
G01X7633640Y3536125D02*
G01X7633640Y3464321D01*
G01X7711679Y3582340D02*
G01X7639876Y3582340D01*
G01X7639876Y3582340D02*
G01X7639876Y3682060D01*
G01X7639876Y3682060D02*
G01X7711679Y3682060D01*
G01X7756921Y3582340D02*
G01X7828725Y3582340D01*
G01X7828725Y3582340D02*
G01X7828725Y3682060D01*
G01X7828725Y3682060D02*
G01X7756921Y3682060D01*
G01X8000060Y3825479D02*
G01X8000060Y3753676D01*
G01X8000060Y3753676D02*
G01X7900340Y3753676D01*
G01X7900340Y3753676D02*
G01X7900340Y3825479D01*
G01X8000060Y3870721D02*
G01X8000060Y3942525D01*
G01X8000060Y3942525D02*
G01X7900340Y3942525D01*
G01X7900340Y3942525D02*
G01X7900340Y3870721D01*
G01X8165160Y3825479D02*
G01X8165160Y3753676D01*
G01X8165160Y3753676D02*
G01X8065440Y3753676D01*
G01X8065440Y3753676D02*
G01X8065440Y3825479D01*
G01X8165160Y3870721D02*
G01X8165160Y3942525D01*
G01X8165160Y3942525D02*
G01X8065440Y3942525D01*
G01X8065440Y3942525D02*
G01X8065440Y3870721D01*
G01X5957346Y3179061D02*
G01X5957346Y3229061D01*
G01X6041824Y3163819D02*
G01X5972584Y3163819D01*
G01X6057064Y3229061D02*
G01X6057064Y3179061D01*
G01X6056851Y3323339D02*
G01X6056851Y3273339D01*
G01X5957138Y3273339D02*
G01X5957138Y3323339D01*
G01X5972373Y3338581D02*
G01X6041616Y3338581D01*
G01X5957136Y3323339D02*
G02X5972376Y3338579I15240J0D01*
G01X6041616Y3338579D02*
G02X6056856Y3323339I0J-15240D01*
G01X6057064Y3179061D02*
G02X6041824Y3163821I-15240J0D01*
G01X5972584Y3163821D02*
G02X5957344Y3179061I0J15240D01*
G01X5961258Y3454550D02*
G01X5961258Y3504550D01*
G01X6045736Y3439307D02*
G01X5976496Y3439307D01*
G01X6060976Y3504550D02*
G01X6060976Y3454550D01*
G01X6060763Y3598827D02*
G01X6060763Y3548827D01*
G01X5961050Y3548827D02*
G01X5961050Y3598827D01*
G01X5976285Y3614069D02*
G01X6045528Y3614069D01*
G01X5961047Y3598827D02*
G02X5976287Y3614067I15240J0D01*
G01X6045528Y3614067D02*
G02X6060768Y3598827I0J-15240D01*
G01X6060976Y3454550D02*
G02X6045736Y3439310I-15240J0D01*
G01X5976496Y3439310D02*
G02X5961256Y3454550I0J15240D01*
G54D10*
G01X9913457Y2816781D02*
G01X9913457Y2736784D01*
G01X9913503Y2872826D02*
G01X9913503Y2952824D01*
G01X9771489Y2816781D02*
G01X9771489Y2736784D01*
G01X9771537Y2872826D02*
G01X9771537Y2952824D01*
G01X9882475Y2705809D02*
G01X9802470Y2705809D01*
G01X9802523Y2983802D02*
G01X9882525Y2983802D01*
G01X9771537Y2952819D02*
G02X9802523Y2983802I30983J0D01*
G01X9882520Y2983802D02*
G02X9913503Y2952819I0J-30983D01*
G01X9913457Y2736789D02*
G02X9882475Y2705809I-30983J3D01*
G01X9802477Y2705809D02*
G02X9771489Y2736789I-5J30983D01*

G04 Circle Start*
G54D17*
G01X9932111Y2997213D02*
G03X9956089Y2997213I11989J0D01*
G03X9932111Y2997213I-11989J0D01*
G54D19*
G01X10439809Y2758100D02*
G03X10454795Y2758100I7493J0D01*
G03X10439809Y2758100I-7493J0D01*
G54D20*
G01X7945011Y3203699D02*
G03X7984990Y3203699I19990J0D01*
G03X7945011Y3203699I-19990J0D01*
G54D10*
G01X4754601Y2689187D02*
G03X4780001Y2689187I12700J0D01*
G03X4754601Y2689187I-12700J0D01*
G04 Circle End*

M02*

