G04 Layer: TopPasteMaskLayer*
G04 EasyEDA Pro v2.2.45.4, 2026-01-24 23:10:09*
G04 Gerber Generator version 0.3*
G04 Scale: 100 percent, Rotated: No, Reflected: No*
G04 Dimensions in millimeters*
G04 Leading zeros omitted, absolute positions, 4 integers and 5 decimals*
G04 Generated by one-click*
%FSLAX45Y45*%
%MOMM*%
%ADD10R,0.9X0.8*%
%ADD11R,0.8X0.9*%
%ADD12R,0.35001X0.75001*%
%ADD13R,0.6X0.27*%
%ADD14R,0.27X0.6*%
%ADD15R,0.4X1.7*%
%ADD16R,1.1X0.6*%
%ADD17R,0.4095X0.6*%
%ADD18R,0.4X0.6*%
%ADD19R,0.6X0.4*%
%ADD20R,0.54X0.5*%
%ADD21R,0.5X0.54*%
%ADD22R,3.0X4.0*%
G75*


G04 PolygonModel Start*
G36*
G01X6133861Y3770302D02*
G01X6133861Y3797953D01*
G01X6161281Y3827328D01*
G01X6211608Y3827328D01*
G01X6218009Y3820927D01*
G01X6218009Y3747328D01*
G01X6211608Y3740927D01*
G01X6161281Y3740927D01*
G01X6133861Y3770302D01*
G37*
G36*
G01X6082297Y3769177D02*
G01X6082297Y3796828D01*
G01X6054877Y3826203D01*
G01X6004550Y3826203D01*
G01X5998149Y3819802D01*
G01X5998149Y3746203D01*
G01X6004550Y3739802D01*
G01X6054877Y3739802D01*
G01X6082297Y3769177D01*
G37*
G36*
G01X6044400Y2817000D02*
G01X6044400Y2771000D01*
G01X6040399Y2767000D01*
G01X5990336Y2767000D01*
G01X5986336Y2771000D01*
G01X5986336Y2817000D01*
G01X5990336Y2821000D01*
G01X6040399Y2821000D01*
G01X6044400Y2817000D01*
G37*
G36*
G01X6071400Y2817000D02*
G01X6071400Y2771000D01*
G01X6075401Y2767000D01*
G01X6125464Y2767000D01*
G01X6129465Y2771000D01*
G01X6129465Y2817000D01*
G01X6125464Y2821000D01*
G01X6075401Y2821000D01*
G01X6071400Y2817000D01*
G37*
G36*
G01X6044400Y2956700D02*
G01X6044400Y2910700D01*
G01X6040399Y2906700D01*
G01X5990336Y2906700D01*
G01X5986336Y2910700D01*
G01X5986336Y2956700D01*
G01X5990336Y2960700D01*
G01X6040399Y2960700D01*
G01X6044400Y2956700D01*
G37*
G36*
G01X6071400Y2956700D02*
G01X6071400Y2910700D01*
G01X6075401Y2906700D01*
G01X6125464Y2906700D01*
G01X6129465Y2910700D01*
G01X6129465Y2956700D01*
G01X6125464Y2960700D01*
G01X6075401Y2960700D01*
G01X6071400Y2956700D01*
G37*
G36*
G01X5520119Y3832619D02*
G01X5520119Y3878618D01*
G01X5524119Y3882619D01*
G01X5574182Y3882619D01*
G01X5578183Y3878618D01*
G01X5578183Y3832619D01*
G01X5574182Y3828618D01*
G01X5524119Y3828618D01*
G01X5520119Y3832619D01*
G37*
G36*
G01X5493118Y3832619D02*
G01X5493118Y3878618D01*
G01X5489118Y3882619D01*
G01X5439054Y3882619D01*
G01X5435054Y3878618D01*
G01X5435054Y3832619D01*
G01X5439054Y3828618D01*
G01X5489118Y3828618D01*
G01X5493118Y3832619D01*
G37*
G36*
G01X5257000Y3883800D02*
G01X5257000Y3837800D01*
G01X5252999Y3833800D01*
G01X5202936Y3833800D01*
G01X5198936Y3837800D01*
G01X5198936Y3883800D01*
G01X5202936Y3887800D01*
G01X5252999Y3887800D01*
G01X5257000Y3883800D01*
G37*
G36*
G01X5284000Y3883800D02*
G01X5284000Y3837800D01*
G01X5288001Y3833800D01*
G01X5338064Y3833800D01*
G01X5342065Y3837800D01*
G01X5342065Y3883800D01*
G01X5338064Y3887800D01*
G01X5288001Y3887800D01*
G01X5284000Y3883800D01*
G37*
G36*
G01X8201800Y2832900D02*
G01X8155800Y2832900D01*
G01X8151800Y2836901D01*
G01X8151800Y2886964D01*
G01X8155800Y2890965D01*
G01X8201800Y2890965D01*
G01X8205800Y2886964D01*
G01X8205800Y2836901D01*
G01X8201800Y2832900D01*
G37*
G36*
G01X8201800Y2805900D02*
G01X8155800Y2805900D01*
G01X8151800Y2801899D01*
G01X8151800Y2751836D01*
G01X8155800Y2747836D01*
G01X8201800Y2747836D01*
G01X8205800Y2751836D01*
G01X8205800Y2801899D01*
G01X8201800Y2805900D01*
G37*
G36*
G01X7724000Y2805900D02*
G01X7770000Y2805900D01*
G01X7774000Y2801899D01*
G01X7774000Y2751836D01*
G01X7770000Y2747836D01*
G01X7724000Y2747836D01*
G01X7720000Y2751836D01*
G01X7720000Y2801899D01*
G01X7724000Y2805900D01*
G37*
G36*
G01X7724000Y2832900D02*
G01X7770000Y2832900D01*
G01X7774000Y2836901D01*
G01X7774000Y2886964D01*
G01X7770000Y2890965D01*
G01X7724000Y2890965D01*
G01X7720000Y2886964D01*
G01X7720000Y2836901D01*
G01X7724000Y2832900D01*
G37*
G36*
G01X7922400Y2820200D02*
G01X7876400Y2820200D01*
G01X7872400Y2824201D01*
G01X7872400Y2874264D01*
G01X7876400Y2878265D01*
G01X7922400Y2878265D01*
G01X7926400Y2874264D01*
G01X7926400Y2824201D01*
G01X7922400Y2820200D01*
G37*
G36*
G01X7922400Y2793200D02*
G01X7876400Y2793200D01*
G01X7872400Y2789199D01*
G01X7872400Y2739136D01*
G01X7876400Y2735136D01*
G01X7922400Y2735136D01*
G01X7926400Y2739136D01*
G01X7926400Y2789199D01*
G01X7922400Y2793200D01*
G37*
G36*
G01X8354200Y2820200D02*
G01X8308200Y2820200D01*
G01X8304200Y2824201D01*
G01X8304200Y2874264D01*
G01X8308200Y2878265D01*
G01X8354200Y2878265D01*
G01X8358200Y2874264D01*
G01X8358200Y2824201D01*
G01X8354200Y2820200D01*
G37*
G36*
G01X8354200Y2793200D02*
G01X8308200Y2793200D01*
G01X8304200Y2789199D01*
G01X8304200Y2739136D01*
G01X8308200Y2735136D01*
G01X8354200Y2735136D01*
G01X8358200Y2739136D01*
G01X8358200Y2789199D01*
G01X8354200Y2793200D01*
G37*
G36*
G01X7810208Y3854693D02*
G01X7764209Y3854693D01*
G01X7760208Y3858693D01*
G01X7760208Y3908756D01*
G01X7764209Y3912757D01*
G01X7810208Y3912757D01*
G01X7814208Y3908756D01*
G01X7814208Y3858693D01*
G01X7810208Y3854693D01*
G37*
G36*
G01X7810208Y3827692D02*
G01X7764209Y3827692D01*
G01X7760208Y3823692D01*
G01X7760208Y3773628D01*
G01X7764209Y3769628D01*
G01X7810208Y3769628D01*
G01X7814208Y3773628D01*
G01X7814208Y3823692D01*
G01X7810208Y3827692D01*
G37*
G36*
G01X7706500Y3213900D02*
G01X7660500Y3213900D01*
G01X7656500Y3217901D01*
G01X7656500Y3267964D01*
G01X7660500Y3271965D01*
G01X7706500Y3271965D01*
G01X7710500Y3267964D01*
G01X7710500Y3217901D01*
G01X7706500Y3213900D01*
G37*
G36*
G01X7706500Y3186900D02*
G01X7660500Y3186900D01*
G01X7656500Y3182899D01*
G01X7656500Y3132836D01*
G01X7660500Y3128836D01*
G01X7706500Y3128836D01*
G01X7710500Y3132836D01*
G01X7710500Y3182899D01*
G01X7706500Y3186900D01*
G37*
G36*
G01X7706500Y3455200D02*
G01X7660500Y3455200D01*
G01X7656500Y3459201D01*
G01X7656500Y3509264D01*
G01X7660500Y3513265D01*
G01X7706500Y3513265D01*
G01X7710500Y3509264D01*
G01X7710500Y3459201D01*
G01X7706500Y3455200D01*
G37*
G36*
G01X7706500Y3428200D02*
G01X7660500Y3428200D01*
G01X7656500Y3424199D01*
G01X7656500Y3374136D01*
G01X7660500Y3370136D01*
G01X7706500Y3370136D01*
G01X7710500Y3374136D01*
G01X7710500Y3424199D01*
G01X7706500Y3428200D01*
G37*
G36*
G01X7747800Y3609200D02*
G01X7747800Y3655200D01*
G01X7751801Y3659200D01*
G01X7801864Y3659200D01*
G01X7805865Y3655200D01*
G01X7805865Y3609200D01*
G01X7801864Y3605200D01*
G01X7751801Y3605200D01*
G01X7747800Y3609200D01*
G37*
G36*
G01X7720800Y3609200D02*
G01X7720800Y3655200D01*
G01X7716799Y3659200D01*
G01X7666736Y3659200D01*
G01X7662736Y3655200D01*
G01X7662736Y3609200D01*
G01X7666736Y3605200D01*
G01X7716799Y3605200D01*
G01X7720800Y3609200D01*
G37*
G36*
G01X7973200Y3861600D02*
G01X7927200Y3861600D01*
G01X7923200Y3865601D01*
G01X7923200Y3915664D01*
G01X7927200Y3919665D01*
G01X7973200Y3919665D01*
G01X7977200Y3915664D01*
G01X7977200Y3865601D01*
G01X7973200Y3861600D01*
G37*
G36*
G01X7973200Y3834600D02*
G01X7927200Y3834600D01*
G01X7923200Y3830599D01*
G01X7923200Y3780536D01*
G01X7927200Y3776536D01*
G01X7973200Y3776536D01*
G01X7977200Y3780536D01*
G01X7977200Y3830599D01*
G01X7973200Y3834600D01*
G37*
G36*
G01X8138300Y3861600D02*
G01X8092300Y3861600D01*
G01X8088300Y3865601D01*
G01X8088300Y3915664D01*
G01X8092300Y3919665D01*
G01X8138300Y3919665D01*
G01X8142300Y3915664D01*
G01X8142300Y3865601D01*
G01X8138300Y3861600D01*
G37*
G36*
G01X8138300Y3834600D02*
G01X8092300Y3834600D01*
G01X8088300Y3830599D01*
G01X8088300Y3780536D01*
G01X8092300Y3776536D01*
G01X8138300Y3776536D01*
G01X8142300Y3780536D01*
G01X8142300Y3830599D01*
G01X8138300Y3834600D01*
G37*

G04 Pad Start*
G54D10*
G01X9664700Y3435198D03*
G01X9664700Y3575202D03*
G54D11*
G01X10534802Y3898900D03*
G01X10394798Y3898900D03*
G54D10*
G01X10541000Y3664102D03*
G01X10541000Y3524098D03*
G54D11*
G01X9874098Y3530600D03*
G01X10014102Y3530600D03*
G54D10*
G01X6178702Y3264205D03*
G01X6178702Y3124200D03*
G01X6178702Y3594100D03*
G01X6178702Y3454095D03*
G54D12*
G01X10425405Y3333102D03*
G01X10345395Y3333102D03*
G01X10265385Y3333102D03*
G01X10185400Y3333102D03*
G01X10105390Y3333102D03*
G01X10025380Y3333102D03*
G01X9945395Y3333102D03*
G01X10425379Y3093098D03*
G01X10345395Y3093098D03*
G01X10265385Y3093098D03*
G01X10185400Y3093098D03*
G01X10105390Y3093098D03*
G01X10025405Y3093098D03*
G01X9945395Y3093098D03*
G54D13*
G01X10391297Y2757107D03*
G01X10391297Y2807119D03*
G01X10391297Y2857106D03*
G01X10391297Y2907119D03*
G54D14*
G01X10324277Y2924101D03*
G01X10274290Y2924101D03*
G01X10224277Y2924101D03*
G54D13*
G01X10157303Y2907119D03*
G01X10157303Y2857106D03*
G01X10157303Y2807119D03*
G01X10157303Y2757107D03*
G54D14*
G01X10224277Y2740099D03*
G01X10274290Y2740099D03*
G01X10324277Y2740099D03*
G54D15*
G01X7933004Y3034690D03*
G01X7998003Y3034690D03*
G01X8063001Y3034690D03*
G01X8128000Y3034690D03*
G01X8192999Y3034690D03*
G01X8257997Y3034690D03*
G01X8322996Y3034690D03*
G01X8322996Y3594710D03*
G01X8257997Y3594710D03*
G01X8192999Y3594710D03*
G01X8128000Y3594710D03*
G01X8063001Y3594710D03*
G01X7998003Y3594710D03*
G01X7933004Y3594710D03*
G54D16*
G01X10074110Y3930396D03*
G01X10074110Y3740404D03*
G01X9814090Y3740404D03*
G01X9814090Y3835400D03*
G01X9814090Y3930396D03*
G54D18*
G01X4776292Y2786190D03*
G01X4886300Y2786190D03*
G01X4966310Y2786190D03*
G01X5126304Y2786190D03*
G01X5166309Y2876182D03*
G01X5206289Y2786190D03*
G01X5246294Y2876182D03*
G01X5286299Y2786190D03*
G01X5326304Y2876182D03*
G01X5366309Y2786190D03*
G01X5406314Y2876182D03*
G01X5446293Y2786190D03*
G01X5486298Y2876182D03*
G01X5526303Y2786190D03*
G54D19*
G01X5866308Y2771204D03*
G01X5866308Y2851188D03*
G01X5866308Y2931198D03*
G01X5866308Y3011183D03*
G01X5776290Y3051188D03*
G01X5866308Y3091193D03*
G01X5776290Y3131198D03*
G01X5866308Y3171203D03*
G01X5776290Y3211182D03*
G01X5866308Y3251187D03*
G01X5776290Y3291192D03*
G01X5866308Y3331197D03*
G01X5776290Y3371202D03*
G01X5866308Y3411207D03*
G01X5776290Y3451187D03*
G01X5866308Y3491192D03*
G01X5866308Y3571202D03*
G01X5866308Y3651187D03*
G01X5866308Y3731197D03*
G54D18*
G01X5766308Y3716185D03*
G01X5686298Y3716185D03*
G01X5646293Y3626193D03*
G01X5606313Y3716185D03*
G01X5566308Y3626193D03*
G01X5526303Y3716185D03*
G01X5486298Y3626193D03*
G01X5446293Y3716185D03*
G01X5406288Y3626193D03*
G01X5326304Y3626193D03*
G01X5286299Y3716185D03*
G01X5246294Y3626193D03*
G01X5206289Y3716185D03*
G01X5166284Y3626193D03*
G01X5126304Y3716185D03*
G01X5086299Y3626193D03*
G01X5006289Y3626193D03*
G01X4966310Y3716185D03*
G01X4926305Y3626193D03*
G01X4886300Y3716185D03*
G01X4846295Y3626193D03*
G01X4776292Y3716185D03*
G54D19*
G01X5206289Y3051188D03*
G01X5206314Y3131198D03*
G01X5206289Y3211182D03*
G01X5206314Y3291192D03*
G01X5206314Y3371202D03*
G01X5206289Y3451187D03*
G54D20*
G01X10537088Y2849677D03*
G01X10537088Y2933700D03*
G01X10020300Y2924912D03*
G01X10020300Y2840888D03*
G01X9652000Y3806088D03*
G01X9652000Y3890112D03*
G01X10223500Y3793388D03*
G01X10223500Y3877412D03*
G01X10192466Y3590430D03*
G01X10192466Y3506407D03*
G01X10332166Y3590430D03*
G01X10332166Y3506407D03*
G54D21*
G01X7738212Y3009900D03*
G01X7654188Y3009900D03*
G54D20*
G01X8039100Y2848712D03*
G01X8039100Y2764688D03*
G01X8280400Y3877412D03*
G01X8280400Y3793388D03*
G01X6007100Y3293212D03*
G01X6007100Y3209188D03*
G01X6011012Y3568700D03*
G01X6011012Y3484677D03*
G54D10*
G01X9842500Y2914802D03*
G01X9842500Y2774798D03*
G54D22*
G01X6501807Y3548846D03*
G01X6515100Y2997200D03*
G04 Pad End*

M02*

